/* XPM */
static char *xpm_[] = {
/* columns rows colors chars-per-pixel */
"64 64 103 2 ",
"   c #E70013",
".  c #E70215",
"X  c #E70417",
"o  c #E70719",
"O  c #E80A1C",
"+  c #E80A1D",
"@  c #E80C1E",
"#  c #E80E20",
"$  c #E80F21",
"%  c #E81022",
"&  c #E81223",
"*  c #E81224",
"=  c #E91425",
"-  c #E91527",
";  c #E91829",
":  c #E91E2F",
">  c #EA2232",
",  c #EA2434",
"<  c #EA2636",
"1  c #EB2B3B",
"2  c #EB2C3C",
"3  c #EB2E3E",
"4  c #EB3241",
"5  c #EC3544",
"6  c #EC3847",
"7  c #EC3A48",
"8  c #EC3C4A",
"9  c #ED3D4C",
"0  c #ED3F4D",
"q  c #ED404E",
"w  c #ED4351",
"e  c #ED4654",
"r  c #ED4957",
"t  c #EE4B59",
"y  c #EE4C5A",
"u  c #EE4F5C",
"i  c #EE535F",
"p  c #EF5562",
"a  c #EF5A67",
"s  c #F0626D",
"d  c #F06772",
"f  c #F06773",
"g  c #F16974",
"h  c #F16F79",
"j  c #F1727C",
"k  c #F2747E",
"l  c #F27680",
"z  c #F27983",
"x  c #F27B85",
"c  c #F27E88",
"v  c #F37F89",
"b  c #F3808A",
"n  c #F3858E",
"m  c #F38992",
"M  c #F48B93",
"N  c #F48B94",
"B  c #F48F97",
"V  c #F48F98",
"C  c #F5959D",
"Z  c #F5979F",
"A  c #F599A1",
"S  c #F59CA3",
"D  c #F6A0A7",
"F  c #F6A3AA",
"G  c #F7AAB0",
"H  c #F7ADB3",
"J  c #F7AEB4",
"K  c #F7B2B7",
"L  c #F8B6BB",
"P  c #F8BABF",
"I  c #F8BBC0",
"U  c #F8BEC3",
"Y  c #F9C0C4",
"T  c #F9C4C8",
"R  c #F9C6CA",
"E  c #FACACE",
"W  c #FACED1",
"Q  c #FACFD2",
"!  c #FAD1D5",
"~  c #FAD2D5",
"^  c #FBD4D7",
"/  c #FBD5D8",
"(  c #FBD8DA",
")  c #FBDBDE",
"_  c #FCDFE1",
"`  c #FCE1E3",
"'  c #FCE4E6",
"]  c #FCE5E7",
"[  c #FCE6E8",
"{  c #FDE9EA",
"}  c #FDE9EB",
"|  c #FDEBEC",
" . c #FDEBED",
".. c #FDEDEE",
"X. c #FDEEEF",
"o. c #FDEFF0",
"O. c #FDF1F2",
"+. c #FDF2F3",
"@. c #FEF3F4",
"#. c #FEF4F4",
"$. c #FEF7F7",
"%. c #FEFBFB",
"&. c white",
/* pixels */
"                                                                                                                                ",
"                                                                                                                                ",
"                                                                                                                                ",
"                                                                                                                                ",
"                                                                                                                                ",
"                                                                                                                                ",
"                                                                                                                                ",
"                                                                                                                                ",
"                                                                                                                                ",
"                                                                                                                                ",
"                                                                                                                                ",
"                                                                                                                                ",
"                                                                                                                                ",
"                                                                                                                                ",
"                                                                                                                                ",
"                                                                                                                                ",
"                                                    X e n L ) O.%.' Y Z a &                                                     ",
"                                                > Z X.&.&.&.&.&.&.&.&.&.&.%.P w                                                 ",
"                                            . k $.&.&.&.&.&.&.&.&.&.&.&.&.&.&.&.G =                                             ",
"                                          : Y &.&.&.&.&.&.&.&.&.&.&.&.&.&.&.&.&.&.| r                                           ",
"                                        2 _ &.&.&.&.&.X.B y =   o : e x W &.&.&.&.&.%.s                                         ",
"                                      * ( &.&.&.&.} k @     .             e E &.&.&.&.%.e                                       ",
"                                    . I &.&.&.&.P &             5 f A A N g : z &.&.&.&.X.>                                     ",
"                                    j &.&.&.&.F .           i ! &.&.&.&.&.&.&.H m &.&.&.&.R                                     ",
"                                  & O.&.&.&.P X         o A &.&.&.&.&.&.&.&.&.&.#.! &.&.&.&.p                                   ",
"                                  v &.&.&.| =         X U &.&.&.&.P &.&.&.&.&.&.&.&.&.&.&.&.^ .                                 ",
"                                . ' &.&.&.h           M &.&.&.&.&.1 W &.&.&.&.&.&.&.&.&.&.&.&.6                                 ",
"                                q &.&.&.O.+         2 &.&.&.&.&.&.< 1 $.&.&.&.&.O.$.&.&.&.&.&.B                                 ",
"                                v &.&.&.Z           F &.&.&.&.&.&.,   f &.o.F u a &.&.&.&.&.&.^                                 ",
"                                H &.&.&.a         X O.&.&.&.&.&.&.<     9 .   : X.&.&.&.&.&.&.%.o                               ",
"                                W &.&.&.2         2 &.&.&.&.&.' Z @         . Y &.&.&.&.&.&.&.&.<                               ",
"                                _ &.&.&.:         q &.&.` B 8 .             v &.&.&.&.&.&.&.&.&.4                               ",
"                                _ &.&.&.<         7 &.&.` B 8 .             v &.&.&.&.&.&.&.&.&.3                               ",
"                                W &.&.&.7         > &.&.&.&.&.] Z @         . Y &.&.&.&.&.&.&.&.<                               ",
"                                H &.&.&.s           X.&.&.&.&.&.&.,     q X . : X.&.&.&.&.&.&.&.o                               ",
"                                c &.&.&.F           A &.&.&.&.&.&.<   f &.X.F y p &.&.&.&.&.&.!                                 ",
"                                8 &.&.&.@.#         1 &.&.&.&.&.&.< 1 $.&.&.&.&.O.%.&.&.&.&.&.B                                 ",
"                                . ' &.&.&.j           m &.&.&.&.&.1 W &.&.&.&.&.&.&.&.&.&.&.&.7                                 ",
"                                  b &.&.&.X.=         X H &.&.&.&.P &.&.&.&.&.&.&.&.&.&.&.&.^                                   ",
"                                  = O.&.&.&.P .         X S &.&.&.&.&.&.&.&.&.&.} R &.&.&.&.p                                   ",
"                                    j &.&.&.&.D .           a ! &.&.&.&.&.&.$.B v &.&.&.&.R                                     ",
"                                    . I &.&.&.&.L #             > s n Z k r # Z &.&.&.&.X.>                                     ",
"                                      $ ! &.&.&.&.[ j +                 . p ^ &.&.&.&.$.9 .                                     ",
"                                        ; / &.&.&.&.&.| m r =   X : e m ' &.&.&.&.&.$.t                                         ",
"                                          ; Y &.&.&.&.&.&.&.&.&.&.&.&.&.&.&.&.&.&.} w                                           ",
"                                            . k $.&.&.&.&.&.&.&.&.&.&.&.&.&.&.&.H =                                             ",
"                                                > V X.&.&.&.&.&.&.&.&.&.&.%.K w                                                 ",
"                                                    X e n L ) O.%.' Y Z a &                                                     ",
"                                                                                                                                ",
"                                                                                                                                ",
"                                                                                                                                ",
"                                                                                                                                ",
"                                                                                                                                ",
"                                                                                                                                ",
"                                                                                                                                ",
"                                                                                                                                ",
"                                                                                                                                ",
"                                                                                                                                ",
"                                                                                                                                ",
"                                                                                                                                ",
"                                                                                                                                ",
"                                                                                                                                ",
"                                                                                                                                ",
"                                                                                                                                "
};
