/* XPM */
static char *xpm_[] = {
/* columns rows colors chars-per-pixel */
"64 64 255 2 ",
"   c #070B07",
".  c #1B0204",
"X  c #18070A",
"o  c #0A160A",
"O  c #151615",
"+  c #270507",
"@  c #340506",
"#  c #2E1611",
"$  c #371718",
"%  c #0B280F",
"&  c #112414",
"*  c #152B16",
"=  c #0B3B14",
"-  c #17351A",
";  c #2B2916",
":  c #181B27",
">  c #1F1E31",
",  c #281D29",
"<  c #183B22",
"1  c #1E2137",
"2  c #322B29",
"3  c #272536",
"4  c #22243B",
"5  c #490404",
"6  c #5B0505",
"7  c #511514",
"8  c #670305",
"9  c #780407",
"0  c #70110E",
"q  c #7A1518",
"w  c #522F14",
"e  c #7B2809",
"r  c #6D350C",
"t  c #462627",
"y  c #51342D",
"u  c #782928",
"i  c #6B3927",
"p  c #723731",
"a  c #0A4313",
"s  c #094714",
"d  c #0C4B15",
"f  c #0D5319",
"g  c #15501C",
"h  c #194725",
"j  c #19562E",
"k  c #284727",
"l  c #304E2D",
"z  c #285F2B",
"x  c #564C0C",
"c  c #68480C",
"v  c #475032",
"b  c #6D5239",
"n  c #61653B",
"m  c #292C44",
"M  c #33344B",
"N  c #35374F",
"B  c #453A4A",
"V  c #3E4057",
"C  c #4C4F57",
"Z  c #73504E",
"A  c #506A4C",
"S  c #515266",
"D  c #626B69",
"F  c #6F6F76",
"G  c #880404",
"H  c #920304",
"J  c #9C0203",
"K  c #840812",
"L  c #911314",
"P  c #A40303",
"I  c #AB0303",
"U  c #A30909",
"Y  c #B30203",
"T  c #BB0202",
"R  c #B80A07",
"E  c #A70919",
"W  c #A51C1D",
"Q  c #B21416",
"!  c #8F2710",
"~  c #AC1924",
"^  c #B91926",
"/  c #8F302E",
"(  c #B92627",
")  c #B02A2E",
"_  c #B53837",
"`  c #C20203",
"'  c #CC0203",
"]  c #C30C08",
"[  c #D30103",
"{  c #DC0303",
"}  c #D80B0A",
"|  c #CA0E14",
" . c #CA1619",
".. c #D91515",
"X. c #E30303",
"o. c #EB0203",
"O. c #E80A09",
"+. c #F40202",
"@. c #FB0201",
"#. c #F60C09",
"$. c #E41212",
"%. c #F21612",
"&. c #DC201E",
"*. c #CA1828",
"=. c #CD1E2D",
"-. c #CA2525",
";. c #D03232",
":. c #E72928",
">. c #EF3129",
",. c #E73A39",
"<. c #8B442C",
"1. c #864734",
"2. c #974C33",
"3. c #964938",
"4. c #B24F3C",
"5. c #A7573B",
"6. c #B3613D",
"7. c #D04539",
"8. c #F3473C",
"9. c #BD3C41",
"0. c #C83F41",
"q. c #914F4A",
"w. c #B14D4C",
"e. c #B6575A",
"r. c #956B53",
"t. c #AA6247",
"y. c #B86546",
"u. c #BB6F58",
"i. c #9B5F67",
"p. c #9A7777",
"a. c #BB6564",
"s. c #B4726E",
"d. c #AC7778",
"f. c #C54947",
"g. c #D94745",
"h. c #D2544E",
"j. c #D7584A",
"k. c #C55858",
"l. c #E74746",
"z. c #EE564C",
"x. c #C96748",
"c. c #D9674B",
"v. c #CE754E",
"b. c #CC6955",
"n. c #CA7657",
"m. c #D77958",
"M. c #E56854",
"N. c #F56758",
"B. c #E87B58",
"V. c #CE4F62",
"C. c #C67767",
"Z. c #CF736E",
"A. c #E96969",
"S. c #E67A6F",
"D. c #F57565",
"F. c #50885A",
"G. c #588468",
"H. c #6D9478",
"J. c #B58B6E",
"K. c #DB835C",
"L. c #E5855D",
"P. c #F38B5F",
"I. c #D1876E",
"U. c #E88866",
"Y. c #F68869",
"T. c #EB9169",
"R. c #F5956A",
"E. c #F28676",
"W. c #E99775",
"Q. c #F69B76",
"!. c #CBA677",
"~. c #F1A775",
"^. c #F6A776",
"/. c #F9A57B",
"(. c #F9AB7C",
"). c #FAB27E",
"_. c #716F83",
"`. c #76788A",
"'. c #A47B80",
"]. c #7BA387",
"[. c #8B8D90",
"{. c #A98986",
"}. c #B68989",
"|. c #AA9594",
" X c #B89797",
".X c #9FA29E",
"XX c #979AA8",
"oX c #A6A7A7",
"OX c #BCA9AE",
"+X c #A8A9B5",
"@X c #B6B5BA",
"#X c #D2918E",
"$X c #E98A8A",
"%X c #F19586",
"&X c #EB9695",
"*X c #CEB492",
"=X c #F9AC83",
"-X c #F8A987",
";X c #FAB384",
":X c #FABB86",
">X c #F8B58B",
",X c #FABD8B",
"<X c #EDA891",
"1X c #F9B592",
"2X c #F9BC97",
"3X c #EA9FA5",
"4X c #DBA6AB",
"5X c #CEADB0",
"6X c #D9B9B8",
"7X c #EDA6A7",
"8X c #F1A9A9",
"9X c #E9B0AC",
"0X c #EBBABA",
"qX c #F2B4B4",
"wX c #F4BABA",
"eX c #BBC1B3",
"rX c #FAC18C",
"tX c #F9C493",
"yX c #FAC995",
"uX c #F8C69A",
"iX c #F9CD9B",
"pX c #FAD29E",
"aX c #D6D2BF",
"sX c #F7CDA9",
"dX c #B8BBC6",
"fX c #E0BBC7",
"gX c #BFC1CA",
"hX c #C5C6C9",
"jX c #D9C6C5",
"kX c #D5D3CD",
"lX c #CDCDD5",
"zX c #D6D5D7",
"xX c #EFCDCE",
"cX c #F5C8C7",
"vX c #E3D8D8",
"bX c #F5D4D4",
"nX c #F7DBDA",
"mX c #F6DCDC",
"MX c #D6E2DB",
"NX c #F3E1DF",
"BX c #DADBE1",
"VX c #E1E2E5",
"CX c #E8E5E7",
"ZX c #ECECEC",
"AX c #F7E5E4",
"SX c #F2ECEC",
"DX c #FAECEB",
"FX c #F8F1EE",
"GX c #ECEDF1",
"HX c #F0F1F2",
"JX c #F4F3F4",
"KX c #FAF5F4",
"LX c #FBF9F7",
"PX c #F8F7F8",
"IX c #FEFEFE",
/* pixels */
"IXIXIXIXIXIXIXBX4 O X $ p / q q Q W ;.c.n.3.p ) jXIXIXIXIXIXIXIXIXIXIXIXIXIXIXIXIXIXIXIXIXIXLXJXaX6XZXFXGXZXGXCXLXIXIXIXIXIXIXIX",
"IXIXIXIXIXIXIXVX4 > # 7 5 9 H Y { { X.' E ! 7 R _ PXPXIXIXIXPXIXIXIXIXIXIXIXIXIXIXIXIXIXIXIXLXeX*XaX|.oX.XoXoX[.zXIXIXIXIXIXIXIX",
"IXIXIXIXIXIXIXGXN 4 # + 5 G J T o.@.@.@.o.{ Y J H kXIXIXIXIXIXIXIXIXIXIXIXIXIXIXIXIXIXIXIXIXLX.X*XaXJ.oXoX.XH.C zXIXIXIXIXIXIXIX",
"IXIXIXIXIXIXIXIXD 4 , @ @ 6 9 J [ @.%.>.8.>.O.' G '.PXIXIXIXIXIXIXIXIXIXIXIXIXIXIXPXIXIXIXIXIXkX!.#X@X@XOXOX[.F zXIXIXIXIXIXIXIX",
"IXIXIXIXIXIXIXIXXX4 : @ 8 9 P [ { :.M.M.z.z.N.%.Y q vXIXIXIXPXIXIXIXIXIXIXPXIXIXIXIXIXIXIXIXIXIXGXGXIXPXIXIXPXIXIXIXIXIXIXIXIXIX",
"IXIXIXIXIXIXIXIXdXm : . 8 9 ` o.%.D.>.+.:.,.,.N...P 1.FXLXIXIXIXIXIXIXIXIXIXIXIXIXIXIXIXIXIXLXPXPXIXPXIXPXIXIXIXIXIXIXIXIXIXIXIX",
"IXIXIXIXIXIXIXIXCXN > X @ 6 ` o.N.z.@.z.D.N.N.g.,.' P i.SXIXIXIXIXIXIXIXIXIXIXIXIXIXIXIXIXIXIXIXIXIXIXIXIXIXIXIXIXIXIXIXIXIXIXIX",
"IXIXIXIXIXIXIXIXJXS 4 $ @ 5 8 Y N.>.%.E.8.%.z.N.;.{ ' H ) CXIXIXIXIXIXIXIXIXIXIXIXIXIXIXIXIXIXIXIXIXIXIXIXIXIXIXIXIXIXIXIXIXIXIX",
"IXIXIXIXIXIXIXIXPX_.1 + 8 I J { z.&.| x.:.#.N.E.;.X.[ T G a.IXIXIXIXIXIXIXIXIXIXIXIXIXIXIXIXIXIXIXIXIXIXIXIXIXIXIXIXIXIXIXIXIXIX",
"IXIXIXIXIXIXIXIXPX_.4 X 8 P I o.8.D.#.N.M.N.D.Y.>.o.[ X.T W SXPXPXIXIXIXIXIXIXIXIXIXIXIXIXIXIXIXIXIXPXIXIXIXIXIXIXIXIXIXIXIXIXIX",
"IXIXIXIXIXIXIXIXPX`.1 : + 6 H ' O.D.N.>.z.D.E.N.#.@.{ o.X.[ f.0XKXIXIXPXIXIXIXIXIXIXIXIXIXIXPXIXIXIXIXIXIXIXIXIXIXIXIXIXIXIXIXIX",
"IXIXIXIXIXIXIXIXIX+Xm , $ I X.' { } ,.B.Y.D.8.#.@.@.o.o.+.o.@.] s.CXIXIXIXIXIXIXIXIXIXLXIXIXIXIXIXIXIXIXIXIXIXIXIXIXIXIXIXIXIXIX",
"IXIXIXIXIXIXIXIXPXdXm , 7 G X.X.o.@.@.o.O.@.@.@.@.@.@.X.@.@.@.>.U.C.jXLXIXIXIXIXIXIXIXIXIXIXIXIXIXIXIXIXIXIXIXIXIXIXIXIXIXIXIXIX",
"IXIXIXIXIXIXIXIXIXlXm 1 w u W Y X.+.@.@.@.@.@.+.@.@.@.+.@.@.@.N.Q.%XZ.#XCXLXIXIXLXIXIXIXIXIXIXIXIXIXIXIXIXIXIXIXIXIXIXIXIXIXIXIX",
"IXIXIXIXIXIXIXIXPXCXN 1 t 2.U.U.f...O.o.+.+.o.+.@.@.@.+.@.@.%.E.=X=X-XW.s.5XAXLXIXIXPXIXIXIXIXIXIXIXIXIXIXIXIXIXIXIXIXIXIXIXIXIX",
"IXIXIXIXIXIXIXIXIXPXF 1 $ <.L.).yXtXW.;.T ` ' { X.X.o.+.@.@.D.1X-X-X-X1X=XE.I.5XPXIXIXIXIXIXIXIXIXIXIXIXIXIXIXIXIXIXIXIXIXIXIXIX",
"IXIXIXIXIXIXIXIXIXLXdX4 , / P.(.yXiXtX(.j.Q I T ` ` ` X.@.%.1X2X2X1X-X1X1X1X%XB.#XvXPXIXPXIXIXIXIXIXIXIXLXIXIXIXIXIXIXIXIXIXIXIX",
"IXIXIXIXIXIXIXIXIXIXzXm 3 <.L.=X2XiXuX^.P.x.$ + @ @ 5 G ' >.<X1X2XsXuX2X1X2X1X%XB.n.#XCXIXPXIXIXLXPXIXIXIXIXIXIXIXIXIXIXIXIXIXIX",
"IXIXIXIXIXIXIXIXIXIXVXm , 2.U.(.yXpXtX^.P.v.; % % o     + p a.Q.-X-X2XsXuX1X2X-XW.U.v.t. XkXZX{.p d.SXIXIXIXIXIXIXIXIXIXIXIXIXIX",
"IXIXIXIXIXIXIXIXIXIXVXM > 2.T.;XiXsX,X(.P.y.d d s s a o   X $ Z C.%X-X2X2X2X2X2X1X/.S.b.x.t.q.6 J I b i.jXIXPXIXIXIXIXIXIXIXIXIX",
"IXIXIXIXIXIXIXIXIXIXzXm , 5.R.>XpXiXrX).R.r.d d f f f d $ @ . X y q.b.U.-X<X1X2X2X1X=XR.U.c.L T ' T 9 G L zXLXIXIXIXIXIXIXIXIXIX",
"IXIXIXIXIXIXIXIXIXIXlXm , y.Q.2XiXiXtX).R.2.d f f f d s p E 0 X + $ y q.m.T./.1X2X>X-X/.^._ T { X.I P I G 7 OXIXIXIXIXIXIXIXIXIX",
"IXIXIXIXIXIXIXIXIXIXgX4 t v.^.tXiXpXyX).P.b d d s z ].zXSXmX9Xw.5 + + $ p x.T./.=X-X-X-Xx.I { X.' Y [ T P J u kXIXIXIXIXIXIXIXIX",
"IXIXIXIXIXIXIXIXIXIX+X4 y m.(.yXsXpXyX).L.n f f H.CX6Xe.k.4XHXFX4Xq + . + t 5.m.R.Q.-Xb.U Y { X.[ [ { T T Y G K |.IXIXIXIXIXIXIX",
"IXIXIXIXIXIXIXIXIXIXXX1 p L.;XyXyXpXiX;XK.A z F.HXd.K w.zXJXKXJXHX4XE 5 X X 7 / x.x.( Y ' ] e { o.O.` 9 ' T H H s.IXIXIXIXIXIXIX",
"IXIXIXIXIXIXIXIXIXIX[.1 1.L.;XtXyXpXiX~.K.l f MX{.K / hXCXeXVXJXHXGXV.E + @ J P L G Y [ o.} x ! o.R 6 8 { T I P s.IXIXIXIXIXIXIX",
"IXIXIXIXIXIXIXIXIXIX_.4 2.L.;XtXiXpXyX/.K.l A SXu K }.lXkXD .XhXGXGX3XE + 8 T Y I Y ' { o.} c c r 0 7 ] [ P [ T s.IXIXIXIXIXIXIX",
"IXIXIXIXIXIXIXIXIXIXS 4 2.R.;XrXiXpXrX=XC.g ].kX7 9 OX+XD A A [.GXGXfX6 . 5 I Y I T ` o.#.Q x ! e r U o.[ Y X.U 9XIXIXIXIXIXIXIX",
"IXIXIXIXIXIXIXIXIXHXS 3 4.R.).tXiXiXtX~.s.f H.hX0 9  XlXdX2 v BXGXGXfX8 . + G T I T { R r c c %.R c ! o.[ Y Y w.sXIXIXIXIXIXIXIX",
"IXIXIXIXIXIXIXIXIXGXV 3 5.Q.).rXyXyXiX>Xr.f F.VXu q i.VXoXlXhX@XGXVX4XE + . 5 I I [ I e r x x r c r w G Y P ! n.9XIXIXIXIXIXIXIX",
"IXIXIXIXIXIXIXIXIXBXN 2 3.R.(.rXtXuXiX;XJ.f f MX Xq 9 '.CXZXGXZXGXlXV.| 6 . . G Y ' { X.O.O.e e r ! 0 5 9 L 1.q.#XIXIXIXIXIXIXIX",
"IXIXIXIXIXIXIXIXIXzXm 3 / P.(.rX,X,XuX;XJ.a a G.BX'.7 7 i.@XBXVXlX5X*.| K . . G T ' { { O.O.e x R ' ' R G t i i {.IXIXIXIXIXIXIX",
"IXIXIXIXIXIXIXIXIXzX3 3 <.B.~.!.!.!.;X^.I.a a s ].dXXXZ y B i.+X5X=.| | K $ u G Y ` ' { O.X.e 0 ' [ R 9 , , t t p.IXIXIXIXIXIXIX",
"IXIXIXIXIXIXIXIXIXVXN : & k k k h A (.^.T.g f d s A XXXX+XgX+Xa.^ ^ | ~ / n.P.7.I T ' { X.{ H ` [ Y / F N 4 4 4 `.IXIXIXIXIXIXIX",
"IXIXIXIXIXIXIXIXIXVXM : o * h h g z ~.^.T.n d s s f s h Z =.Q E E W q.n.L.P.^.(.x.Y ` ' [ [ ` T Y q.SXIXVXgX@XXX@XIXIXIXIXIXIXIX",
"IXIXIXIXIXIXIXIXIXgX3 & o * h h j l ~.^.T.u.z a d s = = w E L K / Z.Y.R.^.).:XrX:Xx.P T ` ` Y L #XKXIXIXIXIXIXIXIXIXIXIXIXIXIXIX",
"IXIXIXIXIXIXIXIXIX`.1 o o - h h j z *X;X-Xm.n = s = = a w E q q.R.^.(.:X:XrXrXrXrXtXy.J I J q.vXIXIXIXIXIXIXIXIXIXIXIXIXIXIXIXIX",
"IXIXIXIXIXIXIXIXJXC 1 o o - - j j j *XtX1XQ.r.= = = = = y 3.u.~.rX;X:XrXrXrXrXrXuXuX-X_ 0 }.KXLXIXIXIXIXIXIXIXIXIXIXIXIXIXIXIXIX",
"IXIXIXIXIXIXIXIXJXC 1   O - < < y / -.;.M.S.S.v - < l b 6.K.).rXyXrXrX:XtXrXrX:X-X~.I.{.BXIXIXIXIXIXPXIXPXIXIXIXIXIXIXIXIXIXIXIX",
"IXIXIXIXIXIXIXPXJXV 1   * < < / =.) b.%X/.U.M.y.<.3.4.v.^.:XrXyXrX:X,XrX,X^.^.Q.W.J.6XPXIXPXIXIXIXIXIXIXIXIXIXIXIXIXIXIXIXIXIXIX",
"IXIXIXIXIXIXIXIXJXN 4   & h / *.^ l r.).(.Q.Y.M.6.L.P.).).rXyXiXyXtX,X;X~.L.K.u.{.ZXIXIXIXIXIXIXIXIXIXIXIXIXIXIXIXIXIXIXIXIXIXIX",
"IXIXIXIXIXIXIXIXZXN 1   & w *.| t < b Q.=Xj.B.M.L.^.).:X:XyXpXpXiXtX(.T.n.t.{.lXPXIXJXPXIXIXIXIXIXbXLXIXLXIXIXIXIXIXIXIXIXIXIXIX",
"IXIXIXIXIXIXIXPX@XB 3 o & u *.E - < v 7.g.=.M.B.L.:XrX,XrXyXyXrX).R.K.t.r.hXPXPXIXIX7X8XbXbXNX8XNX&XbX%XbXqX7XnXIXIXIXIXIXIXIXIX",
"IXIXIXIXIXIXIXCXq.q./ X & /  .W - h l Y.=.^ g.U.U.rX:X:X:X:X).^.L.u.2. XGXIXIXIXIXnX7X$XqXcX7XDXwX&XcX&XcX8X7XDXIXIXIXIXIXIXIXIX",
"IXIXIXIXIXIXIXAXC.u.t.; & / *.^ - h h j.h.( W.-Xm.:X).).~.~.L.v.5.r.kXIXIXIXIXIXLXAXFXFXbXqXnXqXAXqXmXAXbXnXcXbXIXIXIXIXIXIXIXIX",
"IXIXIXIXIXIXIXDXE.U.m.y & y ^ *.t h - K.-Xb.B.Y.x.^.^.R.L.K.6.<..XHXIXIXPXIXIXIXIXIXIXIXIXIXIXIXIXIXIXIXIXIXIXIXIXIXIXIXIXIXIXIX",
"IXIXIXIXIXIXIXDXQ.E.U.b * h ) E ^ l h u.1Xm.c.j.6.R.T.n.6.<.Z kXLXIXIXIXIXIXIXIXLXbX$XwXbXFXnXcXAXDXnXcXNXNXwXDXIXIXIXIXIXIXIXIX",
"IXIXIXIXIXIXIXDXQ.Q.R.t.- h l W =.( p t.E.j.;.Q.v.L.y.2.c |.GXIXIXIXIXPXIXIXIXIXIXIX7XFXqXnX8X&X$XnXwX&XwXcX$XKXIXIXIXIXIXIXIXIX",
"IXIXIXIXIXIXIXDX/.Q.R.n.- h j 2 / ~ =.^ *._ M.T.5.2.i Z kXIXIXPXIXIXIXIXIXIXIXIXLXIXwXLXwX8XbXbXwXAXbXqXcXbX8XAXIXIXIXIXIXIXIXIX",
"IXIXIXIXIXIXIXDXQ.Q.Q.T.; - h - - k l p x./ 4.w.i t .XFXIXIXIXIXIXIXIXIXIXIXIXPXIXIXIXIXIXIXIXIXIXIXIXIXIXIXIXIXIXIXIXIXIXIXIXIX",
"IXIXIXIXIXIXIXDXR.R.R.R.y & < * & - < ; 3.q.q.t F vXIXIXIXLXLXIXIXIXIXIXIXIXIXIXIXIXbXLXnXIXDXLXNXNXKXxXAXLXmXLXIXIXIXIXIXIXIXIX",
"IXIXIXIXIXIXIXAXU.B.U.L.1.o & & O & - O q.b  XlXIXIXIXIXIXIXIXIXIXIXIXIXIXIXIXIXIXFX$X8X$XFX$XcX8X&XqXnX7X7XmXIXIXIXIXIXIXIXIXIX",
"IXIXIXIXIXIXIXAX6.y.y.y.2.o & *     o O t |.IXIXIXIXIXIXIXIXIXIXIXIXIXIXIXIXIXIXIXnXbX7XcXqXqX&XqX8X8XcXqX&XcXIXIXIXIXIXIXIXIXIX",
"IXIXIXIXIXIXIXCXb 1.1.1.p # o o   o o S @XPXLXIXIXIXIXIXIXIXIXIXIXIXIXLXIXIXIXIXIXKXLXIXLXJXIXKXKXKXLXAXLXLXDXLXIXIXIXIXIXIXIXIX",
"IXIXIXIXIXIXIXvXt t 2 t 2 4 : O 4 [.oXVXIXLXJXIXIXIXFXIXIXIXIXIXIXIXIXIXIXIXIXIXPXIXIXIXLXIXIXIXIXLXIXLXIXIXLXIXIXIXIXIXIXIXIXIX",
"IXIXIXIXIXIXIXVXS F XXlX+X`.dXhXlXPXPXIXIXLXSXIXIXLXZXIXLXCXFXJXPXPXIXPXPXLXLXIXIXLXIXIXJXIXPXLXIXIXSXSXIXIXIXPXIXIXIXIXIXIXIXIX",
"IXIXIXIXIXIXIXIXPXnX8X7Xl.$XA.:.,.9X,.l.xXV.k.:.4Xl.,.$X,.$.S.Z.:.l.CXLXZ.;.:.bXM.,.qXZ.$XZ.,.,.$X,.$.h.#X,.,.AXIXIXIXIXIXIXIXIX",
"IXIXIXIXIXIXIXIXPXf.{ X.*.g.-.( $.k...9.0X_ -.$.a... .f.{ ;.4X( ] $.xXIXw.-.} fX .~ l.s.$X X;.;.OX} -.#Xk.-.| bXIXIXIXIXIXIXIXIX",
"IXIXIXIXIXIXIXIXPX9.0.| _ j.*...O.w.*...l.9.} O.a.O.} V.{  .4X( X.:.AXPXf. .} 0X.._ ,._ A.PXk.A.lX{ ..&Xk.0.| bXIXIXIXIXIXIXIXIX",
"IXIXIXIXIXIXIXIXLXf.;...w.l.-. .O.a.O.{ 0X_ _ $.a.{ } f.{ &.S.( O.$.bXPXe.X.X.4X| ) ,._ A.PXw.f.'.{ ..l.k.$.O.mXIXIXIXIXIXIXIXIX",
"IXIXIXIXIXIXIXIXLX'.Z.s.}.#Xd.}.C. X( C.DX'.'.C. XZ.w.#Xa.a.6X'.e.#XLXIX Xa.Z.SXs.e.$Xd.#XPX5X6XSXs.a.#X Xa.I.PXIXIXIXIXIXIXIXIX",
"IXIXIXIXIXIXIXIX8X3X7X&XS.$XwXZ.$X&Xe.HXIXHX0XLXJXPX XHXIXIXIXIXIXIXIXIXIXIXIXIXLXzXJXPXCXIXIXIXIXIXIXIXIXIXIXIXIXIXIXIXIXIXIXIX",
"IXIXIXIXIXIXIXIXLXmXKXDXDXDXKXDXDXDXzXKXIXHXvXPXPXJX6XPXIXIXIXIXIXIXIXIXIXIXIXIXLXJXIXIXLXIXIXIXIXIXIXIXIXIXIXIXIXIXIXIXIXIXIXIX",
"IXIXIXIXIXIXIXIXIXIXPXIXIXLXIXIXLXIXIXIXIXIXIXIXLXIXIXIXIXIXIXIXIXIXIXIXIXIXIXIXIXIXIXIXIXIXIXIXIXIXIXIXIXIXIXIXIXIXIXIXIXIXIXIX"
};
