/* XPM */
static char *xpm_[] = {
/* columns rows colors chars-per-pixel */
"64 64 116 2 ",
"   c #563F33",
".  c #593E33",
"X  c #5F3C33",
"o  c #613B33",
"O  c #683833",
"+  c #065F33",
"@  c #0F5B33",
"#  c #085E33",
"$  c #0C5D33",
"%  c #1C5633",
"&  c #115B33",
"*  c #145A33",
"=  c #195833",
"-  c #3C4A33",
";  c #245333",
":  c #255333",
">  c #026133",
",  c #006233",
"<  c #056033",
"1  c #424733",
"2  c #464633",
"3  c #4B4433",
"4  c #424833",
"5  c #AC1D33",
"6  c #AA1E34",
"7  c #BE1634",
"8  c #B01C33",
"9  c #B71934",
"0  c #B91834",
"q  c #BB1834",
"w  c #822E33",
"e  c #852D33",
"r  c #882B33",
"t  c #882C33",
"y  c #932733",
"u  c #942733",
"i  c #9D2333",
"p  c #992533",
"a  c #9C2433",
"s  c #922833",
"d  c #A22133",
"f  c #A62033",
"g  c #D10F34",
"h  c #D20F34",
"j  c #C71334",
"k  c #C11534",
"l  c #CD1034",
"z  c #CC1134",
"x  c #D21236",
"c  c #D21438",
"v  c #D3173A",
"b  c #D3173B",
"n  c #D3183B",
"m  c #D31A3D",
"M  c #D41F41",
"N  c #D42345",
"B  c #D42547",
"V  c #D52748",
"C  c #D5294A",
"Z  c #D52C4C",
"A  c #D63352",
"S  c #D63453",
"D  c #D73755",
"F  c #D8405D",
"G  c #D94763",
"H  c #D94B66",
"J  c #D94C66",
"K  c #DA526C",
"L  c #DA546D",
"P  c #DB5A72",
"I  c #DB5C75",
"U  c #DB5D75",
"Y  c #DC647B",
"T  c #DD6C82",
"R  c #DE6E83",
"E  c #DE6F84",
"W  c #DE7085",
"Q  c #DE7387",
"!  c #DF7489",
"~  c #DF7A8D",
"^  c #DF7B8F",
"/  c #E08495",
"(  c #E18597",
")  c #E18B9C",
"_  c #E28E9E",
"`  c #E28F9F",
"'  c #E295A4",
"]  c #E398A6",
"[  c #E399A7",
"{  c #E5A7B3",
"}  c #E5ABB6",
"|  c #E6AEB9",
" . c #E6B1BB",
".. c #E7B5BF",
"X. c #E7B7C0",
"o. c #E7B8C1",
"O. c #E8C2C9",
"+. c #E8C3CA",
"@. c #E8C4CB",
"#. c #E9CCD2",
"$. c #EACDD2",
"%. c #EACFD3",
"&. c #E1D1D3",
"*. c #EAD0D5",
"=. c #EAD2D6",
"-. c #EAD3D8",
";. c #E2E3E1",
":. c #E2E5E3",
">. c #ECE3E5",
",. c #EDE5E6",
"<. c #E2E8E5",
"1. c #EDE7E8",
"2. c #EDEAEA",
"3. c #EDEBEC",
"4. c #EEEDED",
"5. c #EEEEEE",
/* pixels */
", , , , , , , , , , , , , , , , , , , , , , , , , , , , , , , , :.4.5.5.5.5.5.5.5.5.5.5.5.5.5.5.5.5.5.5.5.5.5.5.5.5.5.5.5.5.5.5.",
", , , , , , , , , , , , , , , , , , , , , , , , , , , , , , , , <.4.5.5.5.5.5.5.5.5.5.5.5.5.5.5.5.5.5.5.5.5.5.5.5.5.5.5.5.5.5.5.",
", , , , , , , , , , , , , , , , , , , , , , , , , , , , , , , , <.4.5.5.5.5.5.5.5.5.5.5.5.5.5.5.5.5.5.5.5.5.5.5.5.5.5.5.5.5.5.5.",
", , , , , , , , , , , , , , , , , , , , , , , , , , , , , , , , <.4.5.5.5.5.5.5.5.5.5.5.5.5.5.5.5.5.5.5.5.5.5.5.5.5.5.5.5.5.5.5.",
", , , , , , , , , , , , , , , , , , , , , , , , , , , , , , , , <.5.5.5.5.5.5.5.5.5.5.5.5.5.5.5.5.5.5.5.5.5.5.5.5.5.5.5.5.5.5.5.",
", , , , , , , , , , , , , , , , , , , , , , , , , , , , , , , , <.5.5.5.5.5.5.5.5.5.5.5.5.5.5.5.5.5.5.5.5.5.5.5.5.5.5.5.5.5.5.5.",
", , , , , , , , , , , , , , , , , , , , , , , , , , , , , , , , <.5.5.5.5.5.5.5.5.5.5.5.5.5.5.5.5.5.5.5.5.5.5.5.5.5.5.5.5.5.5.5.",
", , , , , , , , , , , , , , , , , , , , , , , , , , , , , , , , <.5.5.5.5.5.5.5.5.5.5.5.5.5.5.5.5.5.5.5.5.5.5.5.5.5.5.5.5.5.5.5.",
", , , , , , , , , , , , , , , , , , , , , , , , , , , , , , , , <.5.5.5.5.5.5.5.5.5.5.5.5.5.5.5.5.5.5.5.5.5.5.5.5.5.5.5.5.5.5.5.",
", , , , , , , , , , , , , , , , , , , , , , , , , , , , , , , , <.5.5.5.5.5.5.5.5.5.5.5.5.5.5.5.5.5.5.5.5.5.5.5.5.5.5.5.5.5.5.5.",
", , , , , , , , , , , , , , , , , , , , , , , , , , , , , , , , <.5.5.5.5.5.5.5.5.5.5.5.5.5.5.5.5.5.5.5.5.5.5.5.5.5.5.5.5.5.5.5.",
", , , , , , , , , , , , , , , , , , , , , , , , , , , , , , , , <.5.5.5.5.5.5.5.5.5.5.5.5.5.5.5.5.5.5.5.5.5.5.5.5.5.5.5.5.5.5.5.",
", , , , , , , , , , , , , , , , , , , , , , , , , , , , , , , , <.5.4.4.4.4.4.4.5.5.5.5.5.5.5.5.5.5.5.5.5.5.5.5.5.5.5.5.5.5.5.5.",
", , , , , , , , , , , , , , , , , , , , , , , , , , , , , , + & &.,.4.4.5.5.4.4.5.5.5.5.5.5.5.5.5.5.5.5.5.5.5.5.5.5.5.5.5.5.5.5.",
", , , , , , , , , , , , , , , , , , , , , , , , , , : o p q h h x g v A Y | 2.4.5.5.5.5.5.5.5.5.5.5.5.5.5.5.5.5.5.5.5.5.5.5.5.5.",
", , , , , , , , , , , , , , , , , , , , , , , $ o q g g h h h h x g g h c x m R -.4.5.5.5.5.5.5.5.5.5.5.5.5.5.5.5.5.5.5.5.5.5.5.",
", , , , , , , , , , , , , , , , , , , , , , 2 k h h h h h h h h h h h x g g x x c ! 2.4.5.5.5.5.5.5.5.5.5.5.5.5.5.5.5.5.5.5.5.5.",
", , , , , , , , , , , , , , , , , , , , $ r h g h h h h h h g x M P / [ } } ' ^ H m D $.5.5.5.5.5.5.5.5.5.5.5.5.5.5.5.5.5.5.5.5.",
", , , , , , , , , , , , , , , , , , , % 8 h h h h h h g h g d 4 ;.4.5.5.4.4.5.5.4.2.} K | 4.5.5.5.5.5.5.5.5.5.5.5.5.5.5.5.5.5.5.",
", , , , , , , , , , , , , , , , , , = 7 h h h h h h h g q 2 , , <.4.5.5.4.4.5.5.4.4.4.4.o.*.5.5.5.5.5.5.5.5.5.5.5.5.5.5.5.5.5.5.",
", , , , , , , , , , , , , , , , , $ 5 h h h h h g g h i & , , , <.5.5.5.5.5.5.5.5.5.5.5.5.5.5.5.5.5.5.5.5.5.5.5.5.5.5.5.5.5.5.5.",
", , , , , , , , , , , , , , , , , r h h h h h h g g u # , , , , <.4.5.5.5.5.5.5.5.5.5.5.5.5.5.5.5.5.5.5.5.5.5.5.5.5.5.5.5.5.5.5.",
", , , , , , , , , , , , , , , , 4 x h h h h h h x i < , , , , , <.5.5.5.5.5.5.5.5.5.5.5.5.5.5.5.5.5.5.5.5.5.5.5.5.5.5.5.5.5.5.5.",
", , , , , , , , , , , , , , , + 0 h h h h h h h 7 $ , , , , , , <.5.5.5.5.5.5.5.5.5.5.5.5.5.5.5.5.5.5.5.5.5.5.5.5.5.5.5.5.5.5.5.",
", , , , , , , , , , , , , , , . h h h h h h h h 2 , , , , , , , <.5.5.5.5.5.5.5.5.5.5.5.[ 4.5.5.5.5.5.5.5.5.5.5.5.5.5.5.5.5.5.5.",
", , , , , , , , , , , , , , , 8 h h h h h h h d , , , , , , , , <.5.4.4.5.5.5.5.5.5.5. .B 4.5.5.5.5.5.5.5.5.5.5.5.5.5.5.5.5.5.5.",
", , , , , , , , , , , , , , : g h h h h h h g 1 , , , , , , , , <.5.5.X.X.5.5.5.4.4.@.m A 4.4.5.5.5.5.5.5.5.5.5.5.5.5.5.5.5.5.5.",
", , , , , , , , , , , , , , o g h h h h g g k + , , , , , , , , <.5.5.,.V S ` >.4.-.B h G 4.4.5.5.5.5.5.5.5.5.5.5.5.5.5.5.5.5.5.",
", , , , , , , , , , , , , , s x h h h h h h t , , , , , , , , , <.5.5.5.{ g g b R A h h U 4.4.4.5.5.5.5.5.5.5.5.5.5.5.5.5.5.5.5.",
", , , , , , , , , , , , , , 0 g h h h h h h X , , , , , , , , , <.5.5.5.4.H h h h h h h Q 4.4.4.5.5.5.5.5.5.5.5.5.5.5.5.5.5.5.5.",
", , , , , , , , , , , , , , z g h h h h h h 2 , , , , , , , , , <.5.5.5.5.$.c h h h h g V ) ,.4.5.5.5.5.5.5.5.5.5.5.5.5.5.5.5.5.",
", , , , , , , , , , , , , , g g h h h h h h - , , , , , , , , , <.5.5.5.5.4.K h h h h g g g m W -.5.5.5.5.5.5.5.5.5.5.5.5.5.5.5.",
", , , , , , , , , , , , , , l h h h h h g g 4 , , , , , , , , , <.5.5.5.5.' x g h h h h h h g g v ( 3.4.5.5.5.5.5.5.5.5.5.5.5.5.",
", , , , , , , , , , , , , , k h h h h h h g 3 , , , , , , , , , <.5.4.4.| c h h h h h h M K ( X.1.4.5.5.5.5.5.5.5.5.5.5.5.5.5.5.",
", , , , , , , , , , , , , , 5 x h h h h h h O , , , , , , , , , <.5.5.O.b h h c C g g g *.4.5.5.5.5.5.5.5.5.5.5.5.5.5.5.5.5.5.5.",
", , , , , , , , , , , , , , r g h h h h h h y , , , , , , , , , <.5.$.G I _ O.4.$.c h x ,.4.5.5.5.5.5.5.5.5.5.5.5.5.5.5.5.5.5.5.",
", , , , , , , , , , , , , , . g h h h h h h j < , , , , , , , , <.5.3.5.4.5.5.5.5.^ c c 5.5.5.5.5.5.5.5.5.5.5.5.5.5.5.5.5.5.5.5.",
", , , , , , , , , , , , , , % x h h h h h h h 3 , , , , , , , , <.4.4.5.5.5.5.5.4.1.C Z 5.5.5.5.5.5.5.5.5.5.5.5.5.5.5.5.5.5.5.5.",
", , , , , , , , , , , , , , , d h h h h h h g 5 , , , , , , , , <.5.5.5.5.5.5.5.4.4.{ F 5.5.5.5.5.5.5.5.5.5.5.5.5.5.5.5.5.5.5.5.",
", , , , , , , , , , , , , , , 3 h h h h h g g x 2 , , , , , , , <.5.5.5.5.5.5.5.4.4.4.` 5.5.5.5.5.5.5.5.5.5.5.5.5.5.5.5.5.5.5.5.",
", , , , , , , , , , , , , , , , 8 h h h h h h h 7 & , , , , , , <.5.5.5.5.5.5.5.5.5.5.5.5.5.5.5.5.5.5.5.5.5.5.5.5.5.5.5.5.5.5.5.",
", , , , , , , , , , , , , , , , - h h h h h h h x i , , , , , , <.5.5.5.5.5.5.5.5.5.5.5.5.5.5.5.5.5.5.5.5.5.5.5.5.5.5.5.5.5.5.5.",
", , , , , , , , , , , , , , , , , w h h h h h h h h w < , , , , <.5.5.5.5.5.5.5.5.5.5.5.5.5.5.5.5.5.5.5.5.5.5.5.5.5.5.5.5.5.5.5.",
", , , , , , , , , , , , , , , , , # 5 h h h h h g g g p & , , , <.5.5.5.5.5.5.5.5.5.5.5.5.5.5.5.5.5.5.5.5.5.5.5.5.5.5.5.5.5.5.5.",
", , , , , , , , , , , , , , , , , , * 8 h h h h h h h h 0 4 , , <.5.5.5.5.5.5.5.5.5.4.4.X.%.5.5.5.5.5.5.5.5.5.5.5.5.5.5.5.5.5.5.",
", , , , , , , , , , , , , , , , , , , * 8 h h h h h h h g g i 4 <.5.5.4.5.5.5.4.4.3.{ K } 4.5.5.5.5.5.5.5.5.5.5.5.5.5.5.5.5.5.5.",
", , , , , , , , , , , , , , , , , , , , $ r h h h h h h h h h h M I _ | X. .{ ` P M A #.4.4.4.5.5.5.5.5.5.5.5.5.5.5.5.5.5.5.5.5.",
", , , , , , , , , , , , , , , , , , , , , , - 0 h h h h h h h h h h h h x h h h c ! 2.4.4.4.5.5.5.5.5.5.5.5.5.5.5.5.5.5.5.5.5.5.",
", , , , , , , , , , , , , , , , , , , , , , , > 3 f c g g g g g h h h g g g M E *.5.5.5.5.5.5.5.5.5.5.5.5.5.5.5.5.5.5.5.5.5.5.5.",
", , , , , , , , , , , , , , , , , , , , , , , , > , : o i 7 g g h h b D Y | 3.5.5.5.5.5.5.5.5.5.5.5.5.5.5.5.5.5.5.5.5.5.5.5.5.5.",
", , , , , , , , , , , , , , , , , , , , , , , , , , , , , , , & &.1.5.5.5.5.5.5.5.5.5.5.5.5.5.5.5.5.5.5.5.5.5.5.5.5.5.5.5.5.5.5.",
", , , , , , , , , , , , , , , , , , , , , , , , , , , , , , , , <.4.5.5.5.5.5.5.5.5.5.5.5.5.5.5.5.5.5.5.5.5.5.5.5.5.5.5.5.5.5.5.",
", , , , , , , , , , , , , , , , , , , , , , , , , , , , , , , , <.5.5.5.5.5.5.5.5.5.5.5.5.5.5.5.5.5.5.5.5.5.5.5.5.5.5.5.5.5.5.5.",
", , , , , , , , , , , , , , , , , , , , , , , , , , , , , , , , <.4.5.5.5.5.5.5.5.5.5.5.5.5.5.5.5.5.5.5.5.5.5.5.5.5.5.5.5.5.5.5.",
", , , , , , , , , , , , , , , , , , , , , , , , , , , , , , , , <.5.5.5.5.5.5.5.5.5.5.5.5.5.5.5.5.5.5.5.5.5.5.5.5.5.5.5.5.5.5.5.",
", , , , , , , , , , , , , , , , , , , , , , , , , , , , , , , , <.5.5.5.5.5.5.5.5.5.5.5.5.5.5.5.5.5.5.5.5.5.5.5.5.5.5.5.5.5.5.5.",
", , , , , , , , , , , , , , , , , , , , , , , , , , , , , , , , <.5.5.5.5.5.5.5.5.5.5.5.5.5.5.5.5.5.5.5.5.5.5.5.5.5.5.5.5.5.5.5.",
", , , , , , , , , , , , , , , , , , , , , , , , , , , , , , , , <.5.5.5.5.5.5.5.5.5.5.5.5.5.5.5.5.5.5.5.5.5.5.5.5.5.5.5.5.5.5.5.",
", , , , , , , , , , , , , , , , , , , , , , , , , , , , , , , , <.5.5.5.5.5.5.5.5.5.5.5.5.5.5.5.5.5.5.5.5.5.5.5.5.5.5.5.5.5.5.5.",
", , , , , , , , , , , , , , , , , , , , , , , , , , , , , , , , <.5.5.5.5.5.5.5.5.5.5.5.5.5.5.5.5.5.5.5.5.5.5.5.5.5.5.5.5.5.5.5.",
", , , , , , , , , , , , , , , , , , , , , , , , , , , , , , , , <.5.5.5.5.5.5.5.5.5.5.5.5.5.5.5.5.5.5.5.5.5.5.5.5.5.5.5.5.5.5.5.",
", , , , , , , , , , , , , , , , , , , , , , , , , , , , , , , , <.5.5.5.5.5.5.5.5.5.5.5.5.5.5.5.5.5.5.5.5.5.5.5.5.5.5.5.5.5.5.5.",
", , , , , , , , , , , , , , , , , , , , , , , , , , , , > , > > <.5.5.5.5.5.5.5.5.5.5.5.5.5.5.5.5.5.5.5.5.5.5.5.5.5.5.5.5.5.5.5.",
", , , , , , , , , , , , , , , , , , , , , , , , , , , , > > > > <.5.5.5.5.5.5.5.5.5.5.5.5.5.5.5.5.5.5.5.5.5.5.5.5.5.5.5.5.5.5.5."
};
